<svg width="40" height="40" viewBox="0 0 40 40" fill="none" xmlns="http://www.w3.org/2000/svg">
<path d="M20 40C31.0457 40 40 31.0457 40 20C40 8.9543 31.0457 0 20 0C8.9543 0 0 8.9543 0 20C0 31.0457 8.9543 40 20 40Z" fill="#D9D9D9"/>
<path d="M28.4375 13.7837C27.3142 12.6604 25.87 12.1199 24.4004 12.1199C22.9477 12.1199 21.4781 12.6858 20.3632 13.7837L20.0085 14.1385L19.6537 13.7837C18.5304 12.6604 17.0862 12.1199 15.6166 12.1199C14.1639 12.1199 12.6943 12.6858 11.5794 13.7837C9.35813 16.005 9.35813 19.6199 11.5794 21.8412L11.9341 22.1959L19.9916 30.2533L28.049 22.1959L28.4037 21.8412C30.6504 19.6199 30.6504 16.0135 28.4375 13.7837Z" fill="white"/>
</svg>
