<svg width="40" height="40" viewBox="0 0 40 40" fill="none" xmlns="http://www.w3.org/2000/svg">
<path d="M20 40C31.0457 40 40 31.0457 40 20C40 8.9543 31.0457 0 20 0C8.9543 0 0 8.9543 0 20C0 31.0457 8.9543 40 20 40Z" fill="#ED1F79"/>
<path d="M28.4375 13.7837C27.3142 12.6604 25.8699 12.1199 24.4003 12.1199C22.9476 12.1199 21.478 12.6858 20.3632 13.7837L20.0084 14.1385L19.6537 13.7837C18.5304 12.6604 17.0861 12.1199 15.6165 12.1199C14.1638 12.1199 12.6942 12.6858 11.5794 13.7837C9.3581 16.005 9.3581 19.6199 11.5794 21.8412L11.9341 22.1959L19.9915 30.2533L28.049 22.1959L28.4037 21.8412C30.6503 19.6199 30.6503 16.0135 28.4375 13.7837Z" fill="#F2F2F3"/>
</svg>
