<svg width="40" height="40" viewBox="0 0 40 40" fill="none" xmlns="http://www.w3.org/2000/svg">
<g clip-path="url(#clip0_26_2)">
<circle cx="20" cy="20" r="20" transform="matrix(-1 0 0 1 40 0)" fill="white"/>
<path d="M20 0C23.9556 0 27.8224 1.17298 31.1114 3.37061C34.4004 5.56824 36.9638 8.69181 38.4776 12.3463C39.9913 16.0009 40.3874 20.0222 39.6157 23.9018C38.844 27.7814 36.9392 31.3451 34.1421 34.1421C31.3451 36.9392 27.7814 38.844 23.9018 39.6157C20.0222 40.3874 16.0008 39.9913 12.3463 38.4776C8.6918 36.9638 5.56823 34.4004 3.3706 31.1114C1.17297 27.8224 -8.58307e-06 23.9556 -8.58307e-06 20C0.00572655 14.6974 2.1147 9.61368 5.86419 5.8642C9.61367 2.11471 14.6974 0.00573514 20 0ZM20 36.6667C23.2963 36.6667 26.5187 35.6892 29.2595 33.8578C32.0003 32.0265 34.1365 29.4235 35.398 26.3781C36.6594 23.3326 36.9895 19.9815 36.3464 16.7485C35.7033 13.5155 34.116 10.5458 31.7851 8.21489C29.4542 5.88401 26.4845 4.29667 23.2515 3.65358C20.0185 3.01049 16.6674 3.34055 13.6219 4.60201C10.5765 5.86347 7.97352 7.99968 6.14217 10.7405C4.31081 13.4813 3.33332 16.7036 3.33332 20C3.33818 24.4188 5.09568 28.6552 8.22024 31.7798C11.3448 34.9043 15.5812 36.6618 20 36.6667Z" fill="#222222"/>
<path d="M22.265 10.3866C22.4331 10.2463 22.6272 10.1405 22.8362 10.0752C23.0451 10.01 23.2649 9.98647 23.483 10.0061C23.7011 10.0258 23.9131 10.0882 24.1071 10.1898C24.301 10.2914 24.473 10.4302 24.6133 10.5983C24.7536 10.7664 24.8594 10.9605 24.9247 11.1695C24.99 11.3785 25.0135 11.5983 24.9939 11.8163C24.9742 12.0344 24.9118 12.2464 24.8102 12.4404C24.7086 12.6343 24.5698 12.8063 24.4017 12.9466L15.9383 20L24.4017 27.0533C24.7411 27.3367 24.9542 27.7432 24.9939 28.1836C25.0336 28.624 24.8967 29.0622 24.6133 29.4016C24.33 29.7411 23.9234 29.9541 23.483 29.9938C23.0426 30.0335 22.6045 29.8967 22.265 29.6133L12.265 21.28C12.0774 21.1236 11.9265 20.9278 11.823 20.7066C11.7194 20.4855 11.6658 20.2442 11.6658 20C11.6658 19.7557 11.7194 19.5145 11.823 19.2933C11.9265 19.0721 12.0774 18.8764 12.265 18.72L22.265 10.3866Z" fill="#222222"/>
</g>
<defs>
<clipPath id="clip0_26_2">
<rect width="40" height="40" fill="white" transform="matrix(-1 0 0 1 40 0)"/>
</clipPath>
</defs>
</svg>
