<svg width="40" height="40" viewBox="0 0 40 40" fill="none" xmlns="http://www.w3.org/2000/svg">
<g clip-path="url(#clip0_13_442)">
<circle cx="20" cy="20" r="20" fill="white"/>
<path d="M20 0C16.0444 0 12.1776 1.17298 8.8886 3.37061C5.59962 5.56824 3.03617 8.69181 1.52242 12.3463C0.00866572 16.0009 -0.387401 20.0222 0.384303 23.9018C1.15601 27.7814 3.06082 31.3451 5.85787 34.1421C8.65492 36.9392 12.2186 38.844 16.0982 39.6157C19.9778 40.3874 23.9992 39.9913 27.6537 38.4776C31.3082 36.9638 34.4318 34.4004 36.6294 31.1114C38.827 27.8224 40 23.9556 40 20C39.9943 14.6974 37.8853 9.61368 34.1358 5.8642C30.3863 2.11471 25.3026 0.00573514 20 0ZM20 36.6667C16.7037 36.6667 13.4813 35.6892 10.7405 33.8578C7.99969 32.0265 5.86348 29.4235 4.60202 26.3781C3.34056 23.3326 3.0105 19.9815 3.65359 16.7485C4.29667 13.5155 5.88402 10.5458 8.2149 8.21489C10.5458 5.88401 13.5155 4.29667 16.7485 3.65358C19.9815 3.01049 23.3326 3.34055 26.3781 4.60201C29.4235 5.86347 32.0265 7.99968 33.8578 10.7405C35.6892 13.4813 36.6667 16.7036 36.6667 20C36.6618 24.4188 34.9043 28.6552 31.7798 31.7798C28.6552 34.9043 24.4188 36.6618 20 36.6667Z" fill="#222222"/>
<path d="M17.735 10.3866C17.5669 10.2463 17.3728 10.1405 17.1638 10.0752C16.9548 10.01 16.735 9.98647 16.517 10.0061C16.2989 10.0258 16.0869 10.0882 15.8929 10.1898C15.699 10.2914 15.5269 10.4302 15.3866 10.5983C15.2464 10.7664 15.1405 10.9605 15.0752 11.1695C15.01 11.3785 14.9865 11.5983 15.0061 11.8163C15.0258 12.0344 15.0882 12.2464 15.1898 12.4404C15.2914 12.6343 15.4302 12.8063 15.5983 12.9466L24.0616 20L15.5983 27.0533C15.2588 27.3367 15.0458 27.7432 15.0061 28.1836C14.9664 28.624 15.1033 29.0622 15.3866 29.4016C15.67 29.7411 16.0766 29.9541 16.517 29.9938C16.9574 30.0335 17.3955 29.8967 17.735 29.6133L27.735 21.28C27.9226 21.1236 28.0735 20.9278 28.177 20.7066C28.2806 20.4855 28.3342 20.2442 28.3342 20C28.3342 19.7557 28.2806 19.5145 28.177 19.2933C28.0735 19.0721 27.9226 18.8764 27.735 18.72L17.735 10.3866Z" fill="#222222"/>
</g>
<defs>
<clipPath id="clip0_13_442">
<rect width="40" height="40" fill="white"/>
</clipPath>
</defs>
</svg>
