<svg width="218" height="218" viewBox="0 0 218 218" fill="none" xmlns="http://www.w3.org/2000/svg">
<path fill-rule="evenodd" clip-rule="evenodd" d="M109 36.3345C89.8978 36.3345 74.4129 51.8193 74.4129 70.9181C74.4129 90.0204 89.8978 105.505 109 105.505C128.102 105.505 143.587 90.0204 143.587 70.9181C143.587 51.8193 128.102 36.3345 109 36.3345ZM65.3319 70.9181C65.3319 46.8019 84.8838 27.25 109 27.25C133.116 27.25 152.668 46.8019 152.668 70.9181C152.668 95.0378 133.116 114.59 109 114.59C84.8838 114.59 65.3319 95.0344 65.3319 70.9181Z" fill="#484848"/>
<path fill-rule="evenodd" clip-rule="evenodd" d="M109 118.084C68.6019 118.084 36.3345 148.84 36.3345 186.209C36.3345 187.414 35.8559 188.569 35.0041 189.421C34.1522 190.273 32.9969 190.752 31.7922 190.752C30.5876 190.752 29.4322 190.273 28.5804 189.421C27.7286 188.569 27.25 187.414 27.25 186.209C27.25 143.311 64.1158 109 109 109C153.888 109 190.75 143.311 190.75 186.209C190.75 187.414 190.271 188.569 189.42 189.421C188.568 190.273 187.412 190.752 186.208 190.752C185.003 190.752 183.848 190.273 182.996 189.421C182.144 188.569 181.666 187.414 181.666 186.209C181.666 148.84 149.395 118.084 109 118.084Z" fill="#484848"/>
</svg>
