<svg width="250" height="250" viewBox="0 0 250 250" fill="none" xmlns="http://www.w3.org/2000/svg">
<path d="M250 125C250 194.036 194.036 250 125 250C55.9644 250 0 194.036 0 125C0 55.9644 55.9644 0 125 0C194.036 0 250 55.9644 250 125Z" fill="#D9D9D9"/>
<mask id="mask0_40_266" style="mask-type:alpha" maskUnits="userSpaceOnUse" x="0" y="0" width="250" height="250">
<circle cx="125" cy="125" r="125" fill="#D9D9D9"/>
</mask>
<g mask="url(#mask0_40_266)">
<path d="M124.827 141.029C147.401 141.029 165.702 122.715 165.702 100.122C165.702 77.5303 147.401 59.2158 124.827 59.2158C102.252 59.2158 83.9516 77.5303 83.9516 100.122C83.9516 122.715 102.252 141.029 124.827 141.029Z" fill="white"/>
<path d="M226.06 235.66C221.82 216.34 212.098 198.656 198.061 184.731C194.654 181.31 190.962 178.185 187.025 175.391C169.094 161.931 147.24 154.744 124.827 154.937C97.4208 154.797 71.0713 165.507 51.5241 184.731C37.487 198.656 27.7647 216.34 23.5247 235.66C22.7877 239.076 22.8276 242.614 23.6412 246.013C24.4548 249.412 26.0215 252.584 28.2253 255.295C30.5077 258.064 33.3818 260.286 36.6358 261.796C39.8899 263.307 43.4411 264.067 47.0278 264.022H202.625C206.223 264.024 209.774 263.216 213.017 261.658C216.26 260.101 219.111 257.833 221.36 255.022C223.524 252.343 225.068 249.217 225.881 245.869C226.694 242.521 226.755 239.034 226.06 235.66Z" fill="white"/>
</g>
</svg>
