<svg width="256" height="76" viewBox="0 0 256 76" fill="none" xmlns="http://www.w3.org/2000/svg">
<rect x="0.5" y="0.5" width="255" height="75" rx="37.5" fill="white" stroke="#D9D9D9"/>
<rect x="11" y="7" width="114" height="62" rx="31" fill="#5A81FA"/>
<path d="M85.8906 30.8438V31.9531C85.8906 33 85.8906 34.2031 85.6094 35.7344H87.4375V37.3281H81.9062V39.375H85.9062V44.4375H83.9062V40.9375H75.7344V39.375H79.9062V37.3281H74.4219V35.7344H83.5938C83.8594 34.4062 83.8984 33.3594 83.9062 32.4219H76.0156V30.8438H85.8906ZM100.356 30.2188V44.4375H98.4338V37.3281H97.1056V43.75H95.2306V30.4531H97.1056V35.7188H98.4338V30.2188H100.356ZM90.6681 31.7969V39.2188C91.8088 39.1953 93.0588 39.0938 94.4338 38.8281L94.6369 40.5469C92.7306 40.875 91.1056 40.9688 89.6369 40.9688H88.6681V31.7969H90.6681Z" fill="white"/>
<path d="M30.952 34.7767C30.9648 34.7719 30.9817 34.7677 30.9949 34.7638L34.2155 33.835L36.3632 29.0114C36.5975 28.4898 36.9668 28.0473 37.4292 27.7339C37.8916 27.4206 38.4286 27.2489 38.9795 27.2384L53.3438 27C53.3582 27 53.3726 27 53.3869 27C53.8595 26.9997 54.3251 27.1191 54.7441 27.3478C55.163 27.5765 55.5228 27.9079 55.7928 28.3136L59.451 33.8025L64.4362 34.8656C65.4395 35.0823 66.3411 35.6531 66.9899 36.4824C67.6387 37.3116 67.9953 38.349 68 39.4205V43.9793C68 44.2948 67.7399 44.5232 67.4384 44.5232H64.7201C64.3229 46.5629 62.6444 47.9862 60.6397 47.9862C58.6349 47.9862 56.9564 46.5629 56.5593 44.5232H40.0925C39.9055 45.5089 39.3957 46.3954 38.6508 47.0301C37.906 47.6647 36.9728 48.0077 36.0122 47.9999C35.0554 48.0002 34.1275 47.6571 33.3834 47.028C32.6393 46.3989 32.1241 45.5217 31.9238 44.5431C31.1491 44.5394 30.4071 44.2156 29.8595 43.6423C29.3118 43.069 29.0029 42.2926 29 41.4822V37.6652C29.0026 37.0324 29.1913 36.4157 29.5405 35.899C29.8897 35.3822 30.3825 34.9904 30.952 34.7767ZM37.3538 29.4935L35.4621 33.7443H42.494V28.3225L38.9966 28.3806C38.6507 28.387 38.3134 28.4947 38.0231 28.6914C37.7327 28.8881 37.5009 29.166 37.3538 29.4935ZM49.514 33.7534V28.2059L43.586 28.3044V33.7534H49.514ZM54.8969 28.9663C54.7248 28.708 54.4946 28.4978 54.2267 28.3541C53.9588 28.2104 53.6614 28.1377 53.3603 28.1422L50.6059 28.1879V33.7448H58.0818L54.8969 28.9663ZM60.6397 46.8712C61.2485 46.8713 61.8436 46.6825 62.3497 46.3287C62.8559 45.9749 63.2504 45.4721 63.4834 44.8838C63.7164 44.2955 63.7773 43.6481 63.6586 43.0236C63.5398 42.3991 63.2467 41.8254 62.8162 41.3751C62.3858 40.9248 61.8373 40.6182 61.2403 40.4939C60.6432 40.3697 60.0243 40.4335 59.4619 40.6771C58.8995 40.9208 58.4188 41.3335 58.0805 41.863C57.7423 42.3924 57.5618 43.0149 57.5618 43.6517C57.5626 44.5053 57.8871 45.3237 58.4642 45.9273C59.0412 46.5309 59.8236 46.8704 60.6397 46.8712ZM36.012 46.8712C36.6208 46.8713 37.2159 46.6825 37.7221 46.3287C38.2283 45.9749 38.6228 45.4721 38.8558 44.8838C39.0887 44.2955 39.1497 43.6481 39.0309 43.0236C38.9122 42.3991 38.6191 41.8254 38.1886 41.3751C37.7581 40.9248 37.2097 40.6182 36.6126 40.4939C36.0156 40.3697 35.3967 40.4335 34.8343 40.6771C34.2718 40.9208 33.7911 41.3335 33.4529 41.863C33.1147 42.3924 32.9342 43.0149 32.9342 43.6517C32.9351 44.5053 33.2597 45.3236 33.8367 45.9272C34.4138 46.5308 35.1961 46.8703 36.0122 46.8712H36.012ZM30.092 41.4822C30.0943 41.9756 30.2766 42.4495 30.6018 42.807C30.9269 43.1645 31.3704 43.3785 31.8414 43.4054C31.8991 42.2922 32.3617 41.2443 33.1344 40.4765C33.9071 39.7087 34.9314 39.2792 35.9972 39.2761C37.0629 39.273 38.0895 39.6964 38.8663 40.4597C39.6431 41.2229 40.1114 42.2681 40.1751 43.381H56.4767C56.536 42.268 57.0005 41.2211 57.7747 40.4552C58.5489 39.6893 59.5741 39.2626 60.6397 39.2626C61.7053 39.2626 62.7305 39.6893 63.5047 40.4552C64.2789 41.2211 64.7433 42.268 64.8027 43.381H66.908V39.4205C66.9042 38.612 66.6348 37.8293 66.1451 37.2037C65.6553 36.5781 64.9749 36.1475 64.2179 35.9841L59.0769 34.887H34.6819L31.3033 35.8593C30.9498 35.9958 30.6445 36.2418 30.4281 36.5645C30.2117 36.8871 30.0945 37.2711 30.092 37.6652V41.4822Z" fill="white"/>
<rect x="133" y="7" width="114" height="62" rx="31" fill="white"/>
<path d="M203.281 32.3906V33.9688H196.406V32.3906H198.875V30.6094H200.844V32.3906H203.281ZM199.875 34.6094C201.688 34.6094 202.984 36.0156 203 37.9844C202.984 39.9688 201.688 41.375 199.875 41.375C198.062 41.375 196.734 39.9688 196.734 37.9844C196.734 36.0156 198.062 34.6094 199.875 34.6094ZM199.875 36.2656C199.047 36.2656 198.484 36.9062 198.484 37.9844C198.484 39.0625 199.047 39.6875 199.875 39.6875C200.672 39.6875 201.234 39.0625 201.25 37.9844C201.234 36.9062 200.672 36.2656 199.875 36.2656ZM208.719 30.2188V44.4375H206.828V37.5938H205.672V43.8281H203.812V30.5H205.672V36H206.828V30.2188H208.719ZM214.699 31.0625C216.949 31.0625 218.637 32.5 218.637 34.5469C218.637 36.2812 217.426 37.5781 215.684 37.9375V39.8438C216.887 39.7812 218.098 39.6719 219.246 39.5156L219.403 40.9531C216.246 41.5469 212.871 41.5781 210.387 41.5781L210.153 39.9688C211.199 39.9688 212.418 39.9609 213.699 39.9219V37.9219C211.965 37.5703 210.746 36.2734 210.746 34.5469C210.746 32.5 212.449 31.0625 214.699 31.0625ZM214.699 32.7656C213.574 32.7656 212.715 33.4062 212.731 34.5469C212.715 35.6562 213.574 36.3281 214.699 36.3281C215.84 36.3281 216.684 35.6562 216.699 34.5469C216.684 33.4062 215.824 32.7656 214.699 32.7656ZM222.043 30.2188V44.4688H220.059V30.2188H222.043Z" fill="#D9D9D9"/>
<path d="M184.976 34H176.418L166.992 26.184C166.847 26.0647 166.665 25.9996 166.477 26H162.456C162.308 25.9997 162.163 26.0398 162.037 26.116C161.911 26.1923 161.808 26.3016 161.74 26.432C161.678 26.5585 161.65 26.6991 161.66 26.8395C161.67 26.98 161.717 27.1154 161.796 27.232L166.542 34H159.737L157.542 29.64C157.475 29.5081 157.372 29.3971 157.246 29.3195C157.12 29.2418 156.974 29.2004 156.826 29.2H152.804C152.591 29.2 152.386 29.2843 152.236 29.4343C152.085 29.5843 152 29.7878 152 30V35.544C152.002 37.2556 152.687 38.8965 153.903 40.1067C155.12 41.317 156.77 41.9979 158.491 42H165.44L161.748 48.824C161.683 48.9457 161.65 49.0822 161.654 49.2201C161.657 49.3579 161.697 49.4926 161.768 49.6109C161.839 49.7293 161.94 49.8273 162.06 49.8954C162.181 49.9636 162.317 49.9996 162.456 50H166.477C166.587 49.9996 166.696 49.9767 166.797 49.9327C166.898 49.8887 166.989 49.8244 167.064 49.744L174.255 42H184.976C185.509 42.0202 186.041 41.9306 186.538 41.7367C187.036 41.5429 187.487 41.2489 187.865 40.8734C188.242 40.4979 188.538 40.0488 188.733 39.5543C188.927 39.0599 189.018 38.5307 188.997 38C189.018 37.4693 188.927 36.9401 188.733 36.4457C188.538 35.9512 188.242 35.5021 187.865 35.1266C187.487 34.7511 187.036 34.4571 186.538 34.2633C186.041 34.0694 185.509 33.9798 184.976 34ZM164 27.6H166.188L173.909 34H168.504L164 27.6ZM166.123 48.4H163.799L168.568 39.6H174.295L173.314 40.656L166.123 48.4ZM184.976 40.4H175.734L176.716 39.344C176.822 39.23 176.893 39.0877 176.919 38.9345C176.945 38.7813 176.926 38.6237 176.864 38.4812C176.801 38.3386 176.699 38.2172 176.568 38.1317C176.438 38.0463 176.285 38.0005 176.129 38H168.086C167.941 37.9996 167.799 38.038 167.674 38.1113C167.55 38.1845 167.447 38.2897 167.378 38.416L166.3 40.4H158.491C157.196 40.4 155.954 39.8884 155.038 38.9777C154.123 38.067 153.609 36.8319 153.609 35.544V30.8H156.327L158.523 35.16C158.59 35.2919 158.692 35.4029 158.818 35.4805C158.945 35.5582 159.09 35.5996 159.239 35.6H184.976C185.616 35.6 186.229 35.8529 186.682 36.3029C187.134 36.753 187.389 37.3635 187.389 38C187.389 38.6365 187.134 39.247 186.682 39.6971C186.229 40.1471 185.616 40.4 184.976 40.4Z" fill="#D9D9D9"/>
</svg>
